<svg xmlns="http://www.w3.org/2000/svg" xmlns:xlink="http://www.w3.org/1999/xlink" id="Layer_1" x="0px" y="0px" viewBox="0 0 473.1 95.1" style="enable-background:new 0 0 473.1 95.1;" xml:space="preserve"><style type="text/css">	.st0{fill:#E7E7E7;}</style><path class="st0" d="M242.5,67.6c0,0-0.7,0.7-2.6,1.4c-4.6,1.5-9.5-1-11-5.6c-1.6-4.8-1-11.8,2.2-17.2c2.9-5,4.2-10.4,4.7-14 c0-0.2,0.2-0.1,0.3,0c0.2,1.9,0.7,6.5,0.1,12.1C235.2,52,237.3,62.3,242.5,67.6 M254.7,38.9c-7-3.1-11-7.7-12.2-9.4 c-0.1-0.1-0.3,0-0.2,0.1c3.5,11.3,12,10.7,15.1,20.2c2.9,8.8,1,13.1,1,13.1c1,0,2-0.1,3-0.4c4.6-1.5,7.1-6.2,5.6-10.8 C265.7,48.3,262.4,42.3,254.7,38.9 M257.1,61.6c-0.3,3-2.4,5.7-5.5,6.8c-3.2,1.1-6.7-0.1-8.7-2.6c-4-4.4-5.5-12-5.5-16.7 c-0.2-10.2,1.1-21.3,1.5-24.1c0-0.1,0.2-0.1,0.3,0c4.2,16.5,10.3,15.2,14.2,21C258.5,53.7,257.7,59.5,257.1,61.6 M264.6,39.1 c-4.9-4.4-10.1-3.7-17.4-6.9c-0.1,0-0.1,0.1-0.1,0.1c1.2,0.9,4.9,3.7,10.8,6.5c6.5,3.1,9.8,10.5,10.5,13.3 C268.5,52.1,271.3,45.1,264.6,39.1 M226.7,54.1c1.1-7.1,5.2-11.7,5.9-16c0,0-0.6,1.4-3.6,4.8c-3,3.4-7,9.4-5.4,15.5 c1.6,5.8,4.3,6.7,4.3,6.7S225.6,61.2,226.7,54.1"></path><path class="st0" d="M32.3,34.3c1.5,0,2.8,0.3,4.1,0.8c1.3,0.5,2.4,1.3,3.4,2.2c1,0.9,1.7,2,2.3,3.3c0.5,1.3,0.8,2.6,0.8,4 c0,1.5-0.3,2.8-0.8,4.1c-0.5,1.3-1.3,2.4-2.3,3.3c-1,0.9-2.1,1.7-3.4,2.2c-1.3,0.5-2.7,0.8-4.1,0.8h-8.4v8.5c0,0.2-0.1,0.4-0.2,0.6 c-0.2,0.2-0.4,0.3-0.6,0.3h-4.9c-0.2,0-0.4-0.1-0.6-0.3c-0.2-0.2-0.2-0.4-0.2-0.6V35.1c0-0.2,0.1-0.4,0.2-0.6 c0.2-0.2,0.4-0.2,0.6-0.2H32.3z M32.4,48.5c0.5,0,1-0.1,1.5-0.3c0.5-0.2,0.9-0.5,1.2-0.8c0.3-0.4,0.6-0.8,0.8-1.2 c0.2-0.5,0.3-1,0.3-1.5c0-0.5-0.1-1-0.3-1.5c-0.2-0.5-0.5-0.9-0.8-1.2c-0.4-0.3-0.8-0.6-1.3-0.8c-0.5-0.2-1-0.3-1.5-0.3h-8.4v7.7 H32.4L32.4,48.5z"></path><path class="st0" d="M72.4,63.2c0.1,0.3,0.1,0.6-0.1,0.8c-0.2,0.2-0.4,0.4-0.7,0.4h-4.9c-0.4,0-0.7-0.2-0.8-0.5l-2.6-6.4H51.5 l-2.7,6.4c-0.1,0.3-0.4,0.5-0.8,0.5h-4.8c-0.3,0-0.5-0.1-0.7-0.4c-0.2-0.2-0.2-0.5-0.1-0.8l11.8-28.4c0.1-0.3,0.4-0.5,0.8-0.5h4.9 c0.4,0,0.6,0.2,0.7,0.5L72.4,63.2z M60.6,50.9l-3.2-7.7l-3.2,7.7H60.6z"></path><path class="st0" d="M100.7,34.5c0.2,0.2,0.2,0.4,0.2,0.6v16.4c0,1.8-0.3,3.5-1,5c-0.7,1.6-1.6,2.9-2.8,4.1 c-1.2,1.2-2.5,2.1-4.1,2.8c-1.6,0.7-3.2,1-5,1c-1.8,0-3.5-0.3-5-1c-1.6-0.7-2.9-1.6-4.1-2.8c-1.2-1.2-2.1-2.5-2.8-4.1 c-0.7-1.6-1-3.2-1-5V35.1c0-0.2,0.1-0.4,0.2-0.6c0.2-0.2,0.4-0.2,0.6-0.2h4.8c0.2,0,0.4,0.1,0.6,0.2c0.2,0.2,0.3,0.4,0.3,0.6v16.2 c0,0.9,0.2,1.7,0.5,2.5c0.3,0.8,0.8,1.5,1.4,2.1c0.6,0.6,1.2,1.1,2,1.4c0.8,0.3,1.6,0.5,2.5,0.5c0.9,0,1.7-0.2,2.5-0.5 c0.8-0.3,1.5-0.8,2-1.4c0.6-0.6,1-1.3,1.4-2.1c0.3-0.8,0.5-1.6,0.5-2.5V35.1c0-0.2,0.1-0.4,0.2-0.6c0.2-0.2,0.4-0.2,0.6-0.2h0h4.7 C100.3,34.3,100.5,34.3,100.7,34.5"></path><path class="st0" d="M128.2,58.1c0.2,0.2,0.3,0.4,0.3,0.6v4.9c0,0.2-0.1,0.4-0.3,0.6c-0.2,0.2-0.4,0.2-0.6,0.2h-19.3c0,0,0,0-0.1,0 c0,0,0,0-0.1,0c-0.2,0-0.4-0.1-0.6-0.3c-0.2-0.2-0.2-0.4-0.2-0.6V35.1c0-0.2,0.1-0.4,0.2-0.6c0.2-0.2,0.4-0.2,0.6-0.2h4.9 c0.2,0,0.4,0.1,0.6,0.2c0.2,0.2,0.2,0.4,0.2,0.6v22.7h13.7C127.8,57.8,128,57.9,128.2,58.1"></path><path class="st0" d="M133.2,64.4c-0.2,0-0.4-0.1-0.6-0.2c-0.2-0.2-0.2-0.4-0.2-0.6V35.1c0-0.2,0.1-0.4,0.2-0.6 c0.2-0.2,0.4-0.2,0.6-0.2h4.8c0.2,0,0.4,0.1,0.6,0.2c0.2,0.2,0.2,0.4,0.2,0.6v28.4c0,0.2-0.1,0.5-0.2,0.6c-0.2,0.2-0.4,0.2-0.6,0.2 c0,0,0,0-0.1,0c0,0,0,0-0.1,0h-4.6C133.3,64.3,133.3,64.4,133.2,64.4C133.3,64.4,133.2,64.4,133.2,64.4"></path><path class="st0" d="M173.6,34.5c0.2,0.2,0.2,0.4,0.2,0.6v28.4c0,0.2-0.1,0.4-0.2,0.6c-0.2,0.2-0.4,0.2-0.6,0.2h-4.8 c-0.2,0-0.4-0.1-0.6-0.2l-17.2-19v18.5c0,0.2-0.1,0.4-0.2,0.6c-0.2,0.2-0.4,0.2-0.6,0.2h-4.8c-0.2,0-0.4-0.1-0.6-0.2 c-0.2-0.2-0.2-0.4-0.2-0.6V35.1c0-0.2,0.1-0.4,0.2-0.6c0.2-0.2,0.4-0.2,0.6-0.2h4.8c0.3,0,0.5,0.1,0.7,0.2c0,0,0.3,0.4,1,1.1 c0.7,0.7,1.5,1.6,2.5,2.8c1,1.1,2.2,2.4,3.5,3.8c1.3,1.4,2.5,2.8,3.8,4.2c1.3,1.4,2.5,2.7,3.6,4c1.1,1.2,2.1,2.3,2.8,3.1V35.1 c0-0.2,0.1-0.4,0.2-0.6c0.2-0.2,0.4-0.2,0.6-0.2h4.8h0C173.2,34.3,173.4,34.3,173.6,34.5"></path><path class="st0" d="M208.9,63.2c0.1,0.3,0.1,0.6-0.1,0.8c-0.2,0.2-0.4,0.4-0.7,0.4h-4.9c-0.4,0-0.7-0.2-0.8-0.5l-2.6-6.4h-11.8 l-2.7,6.4c-0.1,0.3-0.4,0.5-0.8,0.5h-4.8c-0.3,0-0.5-0.1-0.7-0.4c-0.2-0.2-0.2-0.5-0.1-0.8l11.8-28.4c0.1-0.3,0.4-0.5,0.8-0.5h4.9 c0.4,0,0.6,0.2,0.7,0.5L208.9,63.2z M197,50.9l-3.2-7.7l-3.2,7.7H197z"></path><path class="st0" d="M309.5,58.8c0.4,0.4,0.4,0.8,0,1.2c-1.5,1.4-3.1,2.5-4.9,3.3c-1.8,0.8-3.7,1.1-5.7,1.1c-2.1,0-4-0.4-5.9-1.2 c-1.8-0.8-3.4-1.9-4.8-3.2c-1.4-1.4-2.4-2.9-3.2-4.8c-0.8-1.8-1.2-3.8-1.2-5.9c0-2.1,0.4-4,1.2-5.9c0.8-1.8,1.9-3.4,3.2-4.8 c1.4-1.4,3-2.4,4.8-3.2c1.8-0.8,3.8-1.2,5.9-1.2c2,0,3.9,0.4,5.7,1.1c1.8,0.7,3.4,1.8,4.9,3.2v0c0.4,0.4,0.4,0.8,0,1.2 c0,0.1-0.1,0.1-0.2,0.2l-3.3,3.3c-0.2,0.2-0.4,0.2-0.6,0.2c-0.2,0-0.4-0.1-0.6-0.2c-0.8-0.8-1.7-1.4-2.7-1.8c-1-0.4-2.1-0.7-3.3-0.7 c-1.2,0-2.3,0.2-3.3,0.7c-1,0.5-1.9,1.1-2.7,1.8c-0.8,0.8-1.4,1.7-1.8,2.7c-0.5,1-0.7,2.1-0.7,3.3c0,1.2,0.2,2.3,0.7,3.3 c0.5,1,1.1,1.9,1.8,2.7c0.8,0.8,1.7,1.4,2.7,1.8c1,0.5,2.1,0.7,3.3,0.7c1.2,0,2.2-0.2,3.3-0.7c1-0.4,2-1.1,2.8-1.8 c0.1-0.2,0.3-0.2,0.6-0.2c0.2,0,0.5,0.1,0.6,0.2L309.5,58.8L309.5,58.8z"></path><path class="st0" d="M328.8,34.3c2.1,0,4.1,0.4,5.9,1.2c1.8,0.8,3.5,1.9,4.8,3.2c1.4,1.4,2.5,2.9,3.3,4.8c0.8,1.8,1.2,3.8,1.2,5.9 c0,2.1-0.4,4-1.2,5.9c-0.8,1.8-1.9,3.4-3.3,4.8c-1.4,1.4-3,2.4-4.8,3.2c-1.8,0.8-3.8,1.2-5.9,1.2c-2.1,0-4.1-0.4-6-1.2 c-1.9-0.8-3.5-1.9-4.9-3.2c-1.4-1.4-2.5-2.9-3.3-4.8c-0.8-1.8-1.2-3.8-1.2-5.9c0-2.1,0.4-4,1.2-5.9c0.8-1.8,1.9-3.4,3.3-4.8 c1.4-1.4,3-2.4,4.9-3.2C324.7,34.7,326.7,34.3,328.8,34.3 M320,49.3c0,1.2,0.2,2.3,0.7,3.3c0.5,1,1.1,1.9,1.9,2.7 c0.8,0.8,1.7,1.4,2.8,1.8c1,0.5,2.2,0.7,3.4,0.7c1.2,0,2.3-0.2,3.3-0.7c1.1-0.5,2-1.1,2.8-1.8c0.8-0.8,1.4-1.7,1.9-2.7 c0.5-1,0.7-2.1,0.7-3.3c0-1.2-0.2-2.3-0.7-3.3c-0.5-1-1.1-1.9-1.9-2.7c-0.8-0.8-1.7-1.4-2.8-1.8c-1.1-0.5-2.2-0.7-3.3-0.7 c-1.2,0-2.3,0.2-3.4,0.7c-1,0.5-2,1.1-2.8,1.8c-0.8,0.8-1.4,1.7-1.9,2.7C320.3,47,320,48.1,320,49.3"></path><path class="st0" d="M374.2,58.8c0.4,0.4,0.4,0.8,0,1.2c-1.5,1.4-3.1,2.5-4.9,3.3c-1.8,0.8-3.7,1.1-5.7,1.1c-2.1,0-4-0.4-5.9-1.2 c-1.8-0.8-3.4-1.9-4.8-3.2c-1.4-1.4-2.4-2.9-3.2-4.8c-0.8-1.8-1.2-3.8-1.2-5.9c0-2.1,0.4-4,1.2-5.9c0.8-1.8,1.9-3.4,3.2-4.8 c1.4-1.4,3-2.4,4.8-3.2c1.8-0.8,3.8-1.2,5.9-1.2c2,0,3.9,0.4,5.7,1.1c1.8,0.7,3.4,1.8,4.9,3.2v0c0.4,0.4,0.4,0.8,0,1.2 c0,0.1-0.1,0.1-0.2,0.2l-3.3,3.3c-0.2,0.2-0.4,0.2-0.6,0.2c-0.2,0-0.4-0.1-0.6-0.2c-0.8-0.8-1.7-1.4-2.7-1.8c-1-0.4-2.1-0.7-3.3-0.7 c-1.2,0-2.3,0.2-3.3,0.7c-1,0.5-1.9,1.1-2.7,1.8c-0.8,0.8-1.4,1.7-1.8,2.7c-0.5,1-0.7,2.1-0.7,3.3c0,1.2,0.2,2.3,0.7,3.3 c0.5,1,1.1,1.9,1.8,2.7c0.8,0.8,1.7,1.4,2.7,1.8c1,0.5,2.1,0.7,3.3,0.7c1.2,0,2.2-0.2,3.3-0.7c1-0.4,2-1.1,2.8-1.8 c0.1-0.2,0.3-0.2,0.6-0.2c0.2,0,0.5,0.1,0.6,0.2L374.2,58.8L374.2,58.8z"></path><path class="st0" d="M380.1,64.4c-0.2,0-0.4-0.1-0.6-0.2c-0.2-0.2-0.2-0.4-0.2-0.6V35.1c0-0.2,0.1-0.4,0.2-0.6 c0.2-0.2,0.4-0.2,0.6-0.2h4.8c0.2,0,0.4,0.1,0.6,0.2c0.2,0.2,0.2,0.4,0.2,0.6v28.4c0,0.2-0.1,0.5-0.2,0.6c-0.2,0.2-0.4,0.2-0.6,0.2 c0,0,0,0-0.1,0c0,0,0,0-0.1,0h-4.6C380.2,64.3,380.2,64.4,380.1,64.4C380.1,64.4,380.1,64.4,380.1,64.4"></path><path class="st0" d="M420.4,34.5c0.2,0.2,0.2,0.4,0.2,0.6v28.4c0,0.2-0.1,0.4-0.2,0.6c-0.2,0.2-0.4,0.2-0.6,0.2H415 c-0.2,0-0.4-0.1-0.6-0.2l-17.2-19v18.5c0,0.2-0.1,0.4-0.2,0.6c-0.2,0.2-0.4,0.2-0.6,0.2h-4.8c-0.2,0-0.4-0.1-0.6-0.2 c-0.2-0.2-0.2-0.4-0.2-0.6V35.1c0-0.2,0.1-0.4,0.2-0.6c0.2-0.2,0.4-0.2,0.6-0.2h4.8c0.3,0,0.5,0.1,0.7,0.2c0,0,0.3,0.4,1,1.1 c0.7,0.7,1.5,1.6,2.5,2.8c1,1.1,2.2,2.4,3.5,3.8c1.3,1.4,2.5,2.8,3.8,4.2c1.3,1.4,2.5,2.7,3.6,4c1.1,1.2,2.1,2.3,2.8,3.1V35.1 c0-0.2,0.1-0.4,0.2-0.6c0.2-0.2,0.4-0.2,0.6-0.2h4.8h0C420.1,34.3,420.2,34.3,420.4,34.5"></path><path class="st0" d="M455.7,63.2c0.1,0.3,0.1,0.6-0.1,0.8c-0.2,0.2-0.4,0.4-0.7,0.4H450c-0.4,0-0.7-0.2-0.8-0.5l-2.6-6.4h-11.8 l-2.7,6.4c-0.1,0.3-0.4,0.5-0.8,0.5h-4.8c-0.3,0-0.5-0.1-0.7-0.4c-0.2-0.2-0.2-0.5-0.1-0.8l11.8-28.4c0.1-0.3,0.4-0.5,0.8-0.5h4.9 c0.4,0,0.6,0.2,0.7,0.5L455.7,63.2z M443.9,50.9l-3.2-7.7l-3.2,7.7H443.9z"></path></svg>