<?xml version="1.0" encoding="utf-8"?>
<!-- Generator: Adobe Illustrator 21.0.2, SVG Export Plug-In . SVG Version: 6.00 Build 0)  -->
<svg version="1.1" id="Capa_1" xmlns="http://www.w3.org/2000/svg" xmlns:xlink="http://www.w3.org/1999/xlink" x="0px" y="0px"
	 viewBox="0 0 512 512" style="enable-background:new 0 0 512 512;" xml:space="preserve">
<style type="text/css">
	.st0{fill:#FFFFFF;}
	.st1{fill:#64B161;}
</style>
<path class="st0" d="M11.9,501.1l34.5-125.9c-21.3-36.8-32.4-78.6-32.4-121.4C14,119.9,123,10.9,256.9,10.9
	c65,0,126,25.3,171.9,71.2c45.9,45.9,71.1,106.9,71.1,171.9c-0.1,133.9-109.1,242.9-243,242.9c0,0,0,0,0,0h-0.1
	c-40.7,0-80.6-10.2-116.1-29.6L11.9,501.1z M146.7,423.4l7.4,4.4c31,18.4,66.5,28.1,102.8,28.1h0.1c111.3,0,201.9-90.6,201.9-201.9
	c0-53.9-21-104.7-59.1-142.8C361.6,73,310.9,51.9,257,51.9c-111.4,0-202,90.6-202,201.9c0,38.1,10.7,75.3,30.9,107.4l4.8,7.6
	l-20.4,74.5L146.7,423.4z"/>
<path class="st1" d="M20.3,492.6l33.3-121.5c-20.5-35.6-31.3-75.9-31.3-117.2C22.4,124.6,127.6,19.4,256.9,19.4
	c62.8,0,121.6,24.4,165.9,68.8c44.3,44.3,68.7,103.2,68.6,165.9c-0.1,129.3-105.3,234.5-234.6,234.5c0,0,0,0,0,0h-0.1
	c-39.3,0-77.8-9.9-112.1-28.5L20.3,492.6z"/>
<g>
	<path class="st0" d="M11.9,501.1l34.5-125.9c-21.3-36.8-32.4-78.6-32.4-121.4C14,119.9,123,10.9,256.9,10.9
		c65,0,126,25.3,171.9,71.2c45.9,45.9,71.1,106.9,71.1,171.9c-0.1,133.9-109.1,242.9-243,242.9c0,0,0,0,0,0h-0.1
		c-40.7,0-80.6-10.2-116.1-29.6L11.9,501.1z M146.7,423.4l7.4,4.4c31,18.4,66.5,28.1,102.8,28.1h0.1c111.3,0,201.9-90.6,201.9-201.9
		c0-53.9-21-104.7-59.1-142.8C361.6,73,310.9,51.9,257,51.9c-111.4,0-202,90.6-202,201.9c0,38.1,10.7,75.3,30.9,107.4l4.8,7.6
		l-20.4,74.5L146.7,423.4z"/>
	<path class="st0" d="M196.2,152.2c-4.5-10.1-9.3-10.3-13.7-10.5c-3.5-0.2-7.6-0.1-11.6-0.1c-4,0-10.6,1.5-16.2,7.6
		c-5.6,6.1-21.3,20.8-21.3,50.6c0,29.9,21.8,58.7,24.8,62.8c3,4.1,42,67.3,103.7,91.6c51.3,20.2,61.7,16.2,72.9,15.2
		s35.9-14.7,41-28.9c5.1-14.2,5.1-26.3,3.5-28.9c-1.5-2.5-5.6-4-11.6-7.1s-35.9-17.7-41.5-19.8c-5.6-2-9.6-3-13.7,3
		c-4.1,6.1-15.7,19.7-19.2,23.8c-3.5,4.1-7.1,4.6-13.2,1.5c-6.1-3-25.6-9.4-48.8-30.1c-18-16.1-30.2-36-33.8-42
		c-3.5-6.1-0.1-9.1,2.7-12.4c4.9-6,13.1-16.7,15.2-20.8c2-4.1,1-7.6-0.5-10.6C213.4,194.3,201.6,164.3,196.2,152.2z"/>
</g>
</svg>
